<svg xmlns="http://www.w3.org/2000/svg" width="320" height="320" viewBox="0 0 320 320">
  <!-- Dark summer field pixel art background tile -->
  <rect width="320" height="320" fill="#0a1a0a"/>

  <!-- Sky gradient layer - dark twilight -->
  <rect width="320" height="120" fill="#0d1f12"/>
  <rect width="320" height="60" fill="#0f2216"/>

  <!-- Stars -->
  <rect x="40" y="20" width="2" height="2" fill="#3a5a3a" opacity="0.5"/>
  <rect x="120" y="35" width="2" height="2" fill="#4a6a4a" opacity="0.4"/>
  <rect x="200" y="15" width="2" height="2" fill="#3a5a3a" opacity="0.6"/>
  <rect x="280" y="40" width="2" height="2" fill="#4a6a4a" opacity="0.3"/>
  <rect x="70" y="50" width="2" height="2" fill="#3a5a3a" opacity="0.4"/>
  <rect x="250" y="25" width="2" height="2" fill="#4a6a4a" opacity="0.5"/>
  <rect x="160" y="8" width="2" height="2" fill="#3a5a3a" opacity="0.3"/>

  <!-- Distant treeline silhouette -->
  <rect x="0" y="70" width="8" height="16" fill="#0b1e0e"/>
  <rect x="8" y="66" width="8" height="20" fill="#0c200f"/>
  <rect x="16" y="62" width="8" height="24" fill="#0b1e0e"/>
  <rect x="24" y="68" width="8" height="18" fill="#0d2210"/>
  <rect x="32" y="64" width="8" height="22" fill="#0b1e0e"/>
  <rect x="40" y="58" width="8" height="28" fill="#0c200f"/>
  <rect x="48" y="62" width="8" height="24" fill="#0d2210"/>
  <rect x="56" y="66" width="8" height="20" fill="#0b1e0e"/>
  <rect x="64" y="60" width="8" height="26" fill="#0c200f"/>
  <rect x="72" y="56" width="8" height="30" fill="#0b1e0e"/>
  <rect x="80" y="62" width="8" height="24" fill="#0d2210"/>
  <rect x="88" y="66" width="8" height="20" fill="#0c200f"/>
  <rect x="96" y="60" width="8" height="26" fill="#0b1e0e"/>
  <rect x="104" y="64" width="8" height="22" fill="#0d2210"/>
  <rect x="112" y="58" width="8" height="28" fill="#0c200f"/>
  <rect x="120" y="62" width="8" height="24" fill="#0b1e0e"/>
  <rect x="128" y="68" width="8" height="18" fill="#0d2210"/>
  <rect x="136" y="64" width="8" height="22" fill="#0c200f"/>
  <rect x="144" y="56" width="8" height="30" fill="#0b1e0e"/>
  <rect x="152" y="60" width="8" height="26" fill="#0d2210"/>
  <rect x="160" y="66" width="8" height="20" fill="#0c200f"/>
  <rect x="168" y="62" width="8" height="24" fill="#0b1e0e"/>
  <rect x="176" y="58" width="8" height="28" fill="#0d2210"/>
  <rect x="184" y="64" width="8" height="22" fill="#0c200f"/>
  <rect x="192" y="60" width="8" height="26" fill="#0b1e0e"/>
  <rect x="200" y="66" width="8" height="20" fill="#0d2210"/>
  <rect x="208" y="62" width="8" height="24" fill="#0c200f"/>
  <rect x="216" y="56" width="8" height="30" fill="#0b1e0e"/>
  <rect x="224" y="62" width="8" height="24" fill="#0d2210"/>
  <rect x="232" y="68" width="8" height="18" fill="#0c200f"/>
  <rect x="240" y="64" width="8" height="22" fill="#0b1e0e"/>
  <rect x="248" y="58" width="8" height="28" fill="#0d2210"/>
  <rect x="256" y="62" width="8" height="24" fill="#0c200f"/>
  <rect x="264" y="66" width="8" height="20" fill="#0b1e0e"/>
  <rect x="272" y="60" width="8" height="26" fill="#0d2210"/>
  <rect x="280" y="64" width="8" height="22" fill="#0c200f"/>
  <rect x="288" y="68" width="8" height="18" fill="#0b1e0e"/>
  <rect x="296" y="62" width="8" height="24" fill="#0d2210"/>
  <rect x="304" y="58" width="8" height="28" fill="#0c200f"/>
  <rect x="312" y="66" width="8" height="20" fill="#0b1e0e"/>

  <!-- Ground / field base -->
  <rect x="0" y="86" width="320" height="234" fill="#0e1f0e"/>

  <!-- Field rows - pixel crop rows -->
  <!-- Row 1 -->
  <rect x="0" y="100" width="320" height="2" fill="#142a14" opacity="0.6"/>
  <rect x="10" y="96" width="4" height="6" fill="#1a3a18"/>
  <rect x="30" y="94" width="4" height="8" fill="#1d3d1b"/>
  <rect x="55" y="96" width="4" height="6" fill="#1a3a18"/>
  <rect x="80" y="95" width="4" height="7" fill="#1d3d1b"/>
  <rect x="110" y="96" width="4" height="6" fill="#1a3a18"/>
  <rect x="140" y="94" width="4" height="8" fill="#1d3d1b"/>
  <rect x="165" y="96" width="4" height="6" fill="#1a3a18"/>
  <rect x="195" y="95" width="4" height="7" fill="#1d3d1b"/>
  <rect x="220" y="94" width="4" height="8" fill="#1a3a18"/>
  <rect x="250" y="96" width="4" height="6" fill="#1d3d1b"/>
  <rect x="275" y="95" width="4" height="7" fill="#1a3a18"/>
  <rect x="305" y="94" width="4" height="8" fill="#1d3d1b"/>

  <!-- Row 2 -->
  <rect x="0" y="130" width="320" height="2" fill="#142a14" opacity="0.5"/>
  <rect x="20" y="126" width="4" height="6" fill="#1a3a18"/>
  <rect x="45" y="124" width="4" height="8" fill="#1d3d1b"/>
  <rect x="70" y="126" width="4" height="6" fill="#1a3a18"/>
  <rect x="100" y="125" width="4" height="7" fill="#1d3d1b"/>
  <rect x="125" y="124" width="4" height="8" fill="#1a3a18"/>
  <rect x="155" y="126" width="4" height="6" fill="#1d3d1b"/>
  <rect x="180" y="125" width="4" height="7" fill="#1a3a18"/>
  <rect x="210" y="124" width="4" height="8" fill="#1d3d1b"/>
  <rect x="235" y="126" width="4" height="6" fill="#1a3a18"/>
  <rect x="265" y="125" width="4" height="7" fill="#1d3d1b"/>
  <rect x="290" y="124" width="4" height="8" fill="#1a3a18"/>

  <!-- Row 3 -->
  <rect x="0" y="165" width="320" height="2" fill="#142a14" opacity="0.4"/>
  <rect x="15" y="160" width="6" height="8" fill="#1a3a18"/>
  <rect x="50" y="158" width="6" height="10" fill="#1d3d1b"/>
  <rect x="85" y="160" width="6" height="8" fill="#1a3a18"/>
  <rect x="120" y="159" width="6" height="9" fill="#1d3d1b"/>
  <rect x="155" y="158" width="6" height="10" fill="#1a3a18"/>
  <rect x="190" y="160" width="6" height="8" fill="#1d3d1b"/>
  <rect x="225" y="159" width="6" height="9" fill="#1a3a18"/>
  <rect x="260" y="158" width="6" height="10" fill="#1d3d1b"/>
  <rect x="295" y="160" width="6" height="8" fill="#1a3a18"/>

  <!-- Row 4 - closer, bigger plants -->
  <rect x="0" y="200" width="320" height="2" fill="#142a14" opacity="0.3"/>
  <rect x="5" y="194" width="6" height="10" fill="#1a3a18"/>
  <rect x="35" y="192" width="6" height="12" fill="#1d3d1b"/>
  <rect x="65" y="194" width="6" height="10" fill="#1a3a18"/>
  <rect x="95" y="193" width="6" height="11" fill="#1d3d1b"/>
  <rect x="130" y="192" width="6" height="12" fill="#1a3a18"/>
  <rect x="160" y="194" width="6" height="10" fill="#1d3d1b"/>
  <rect x="195" y="193" width="6" height="11" fill="#1a3a18"/>
  <rect x="230" y="192" width="6" height="12" fill="#1d3d1b"/>
  <rect x="265" y="194" width="6" height="10" fill="#1a3a18"/>
  <rect x="300" y="192" width="6" height="12" fill="#1d3d1b"/>

  <!-- Row 5 -->
  <rect x="0" y="240" width="320" height="2" fill="#142a14" opacity="0.25"/>
  <rect x="25" y="232" width="8" height="12" fill="#1a3a18"/>
  <rect x="60" y="230" width="8" height="14" fill="#1d3d1b"/>
  <rect x="105" y="232" width="8" height="12" fill="#1a3a18"/>
  <rect x="145" y="231" width="8" height="13" fill="#1d3d1b"/>
  <rect x="185" y="230" width="8" height="14" fill="#1a3a18"/>
  <rect x="230" y="232" width="8" height="12" fill="#1d3d1b"/>
  <rect x="270" y="231" width="8" height="13" fill="#1a3a18"/>

  <!-- Row 6 - foreground -->
  <rect x="0" y="280" width="320" height="2" fill="#142a14" opacity="0.2"/>
  <rect x="10" y="270" width="8" height="14" fill="#162e14"/>
  <rect x="50" y="268" width="8" height="16" fill="#183218"/>
  <rect x="90" y="270" width="8" height="14" fill="#162e14"/>
  <rect x="140" y="269" width="8" height="15" fill="#183218"/>
  <rect x="180" y="268" width="8" height="16" fill="#162e14"/>
  <rect x="220" y="270" width="8" height="14" fill="#183218"/>
  <rect x="260" y="269" width="8" height="15" fill="#162e14"/>
  <rect x="300" y="268" width="8" height="16" fill="#183218"/>

  <!-- Subtle earth texture -->
  <rect x="0" y="300" width="320" height="20" fill="#0c1a0c"/>
  <rect x="20" y="305" width="4" height="2" fill="#142414" opacity="0.3"/>
  <rect x="80" y="308" width="4" height="2" fill="#142414" opacity="0.2"/>
  <rect x="150" y="304" width="4" height="2" fill="#142414" opacity="0.3"/>
  <rect x="240" y="310" width="4" height="2" fill="#142414" opacity="0.2"/>
</svg>
