<svg xmlns="http://www.w3.org/2000/svg" viewBox="0 0 350 70">
  <!-- Top line -->
  <rect x="0" y="0" width="349" height="9" fill="#b0c8a0"/>
  <!-- Pro -->
  <g fill="#b0c8a0">
    <!-- P -->
    <rect x="0" y="20" width="9" height="9"/><rect x="10" y="20" width="9" height="9"/><rect x="20" y="20" width="9" height="9"/>
    <rect x="0" y="30" width="9" height="9"/><rect x="30" y="30" width="9" height="9"/>
    <rect x="0" y="40" width="9" height="9"/><rect x="10" y="40" width="9" height="9"/><rect x="20" y="40" width="9" height="9"/>
    <rect x="0" y="50" width="9" height="9"/>
    <rect x="0" y="60" width="9" height="9"/>
    <!-- r -->
    <rect x="50" y="30" width="9" height="9"/><rect x="70" y="30" width="9" height="9"/>
    <rect x="50" y="40" width="9" height="9"/><rect x="60" y="40" width="9" height="9"/>
    <rect x="50" y="50" width="9" height="9"/>
    <rect x="50" y="60" width="9" height="9"/>
    <!-- o -->
    <rect x="100" y="20" width="9" height="9"/>
    <rect x="90" y="30" width="9" height="9"/><rect x="110" y="30" width="9" height="9"/>
    <rect x="90" y="40" width="9" height="9"/><rect x="110" y="40" width="9" height="9"/>
    <rect x="90" y="50" width="9" height="9"/><rect x="110" y="50" width="9" height="9"/>
    <rect x="100" y="60" width="9" height="9"/>
  </g>
  <!-- Vege -->
  <g fill="#39ff14">
    <!-- V -->
    <rect x="150" y="20" width="9" height="9"/><rect x="190" y="20" width="9" height="9"/>
    <rect x="150" y="30" width="9" height="9"/><rect x="190" y="30" width="9" height="9"/>
    <rect x="160" y="40" width="9" height="9"/><rect x="180" y="40" width="9" height="9"/>
    <rect x="160" y="50" width="9" height="9"/><rect x="180" y="50" width="9" height="9"/>
    <rect x="170" y="60" width="9" height="9"/>
    <!-- e -->
    <rect x="220" y="20" width="9" height="9"/><rect x="230" y="20" width="9" height="9"/>
    <rect x="210" y="30" width="9" height="9"/><rect x="240" y="30" width="9" height="9"/>
    <rect x="210" y="40" width="9" height="9"/><rect x="220" y="40" width="9" height="9"/><rect x="230" y="40" width="9" height="9"/><rect x="240" y="40" width="9" height="9"/>
    <rect x="210" y="50" width="9" height="9"/>
    <rect x="220" y="60" width="9" height="9"/><rect x="230" y="60" width="9" height="9"/><rect x="240" y="60" width="9" height="9"/>
    <!-- g -->
    <rect x="270" y="20" width="9" height="9"/><rect x="280" y="20" width="9" height="9"/><rect x="290" y="20" width="9" height="9"/>
    <rect x="260" y="30" width="9" height="9"/><rect x="290" y="30" width="9" height="9"/>
    <rect x="270" y="40" width="9" height="9"/><rect x="280" y="40" width="9" height="9"/><rect x="290" y="40" width="9" height="9"/>
    <rect x="290" y="50" width="9" height="9"/>
    <rect x="270" y="60" width="9" height="9"/><rect x="280" y="60" width="9" height="9"/>
    <!-- e -->
    <rect x="320" y="20" width="9" height="9"/><rect x="330" y="20" width="9" height="9"/>
    <rect x="310" y="30" width="9" height="9"/><rect x="340" y="30" width="9" height="9"/>
    <rect x="310" y="40" width="9" height="9"/><rect x="320" y="40" width="9" height="9"/><rect x="330" y="40" width="9" height="9"/><rect x="340" y="40" width="9" height="9"/>
    <rect x="310" y="50" width="9" height="9"/>
    <rect x="320" y="60" width="9" height="9"/><rect x="330" y="60" width="9" height="9"/><rect x="340" y="60" width="9" height="9"/>
  </g>
</svg>
